<svg width="24" height="24" xmlns="http://www.w3.org/2000/svg">

 <g>
  <title>background</title>
  <rect fill="none" id="canvas_background" height="402" width="582" y="-1" x="-1"/>
 </g>
 <g>
  <title>Layer 1</title>
  <path fill="#aa56ff" id="svg_1" d="m18,0l-12,0l-6,6.1l12,18.1l12,-18.1l-6,-6.1zm-9,6l3,-3l3,3l-6,0zm6,1l-3,11.2l-3,-11.2l6,0zm-7,0l3.2,12.1l-8,-12.1l4.8,0zm8,0l4.8,0l-8,12.1l3.2,-12.1zm5,-1l-4.6,0l2.2,-2.4l2.4,2.4zm-4,-4l1,1.1l-2.3,2.5l-3.1,-3.2l0.4,-0.4l4,0zm-6,0l0.4,0.5l-3.1,3.1l-2.3,-2.5l1,-1.1l4,0zm-5.6,1.6l2.2,2.4l-4.6,0l2.4,-2.4z"/>
 </g>
</svg>